<svg width="1604" height="339" viewBox="0 0 1604 339" fill="none" xmlns="http://www.w3.org/2000/svg">
<path d="M577.837 101.449H551.206L500.27 178.17L449.123 101.449H422.704V245.168H458.423L458.211 172.675L490.337 222.342V222.554H510.204V222.342L542.118 173.097V245.168H577.837V101.449Z" fill="black"/>
<path d="M704.25 191.696C704.25 160.839 681.635 140.338 651.834 140.338C619.075 140.338 597.305 162.741 597.305 193.81C597.305 225.09 619.709 247.493 653.314 247.493C678.676 247.493 698.332 234.178 703.193 213.043H669.376C666.418 217.693 660.922 220.44 653.736 220.44C640.633 220.44 633.447 213.254 630.699 203.955H703.827L703.616 203.321C704.25 199.516 704.25 195.501 704.25 191.696ZM651.834 166.757C662.825 166.757 670.222 172.675 672.124 183.876H630.276C632.813 173.52 640.21 166.757 651.834 166.757Z" fill="black"/>
<path d="M740.161 126.6C751.151 126.6 760.239 118.357 760.239 107.367C760.239 96.1652 751.151 87.9224 740.161 87.9224C728.959 87.9224 720.082 96.1652 720.082 107.367C720.082 118.357 728.959 126.6 740.161 126.6ZM757.492 142.663H723.253V245.168H757.492V142.663Z" fill="black"/>
<path d="M815.592 95.1084H781.353V245.168H815.592V95.1084Z" fill="black"/>
<path d="M856.813 126.6C867.804 126.6 876.892 118.357 876.892 107.367C876.892 96.1652 867.804 87.9224 856.813 87.9224C845.612 87.9224 836.735 96.1652 836.735 107.367C836.735 118.357 845.612 126.6 856.813 126.6ZM874.144 142.663H839.905V245.168H874.144V142.663Z" fill="black"/>
<path d="M957.607 98.2787C923.79 98.2787 900.542 116.455 900.542 145.199C900.542 168.025 913.857 181.34 942.178 187.469L965.849 192.753C978.108 195.078 981.067 200.15 981.067 205.012C981.067 212.832 974.092 217.693 960.777 217.693C943.869 217.693 932.878 210.084 930.554 197.403H894.835C898.217 232.91 927.383 248.127 959.72 248.127C995.65 248.127 1019.32 230.162 1019.32 201.419C1019.32 176.69 1002.2 166.123 975.994 160.416L955.916 155.766C945.137 153.442 939.43 150.06 939.43 142.24C939.43 132.94 947.673 127.868 959.932 127.868C974.515 127.868 981.278 135.265 983.18 146.044H1019.11C1015.52 107.367 980.855 98.2787 957.607 98.2787Z" fill="black"/>
<path d="M1140.98 191.696C1140.98 160.839 1118.36 140.338 1088.56 140.338C1055.8 140.338 1034.03 162.741 1034.03 193.81C1034.03 225.09 1056.44 247.493 1090.04 247.493C1115.41 247.493 1135.06 234.178 1139.92 213.043H1106.11C1103.15 217.693 1097.65 220.44 1090.47 220.44C1077.36 220.44 1070.18 213.254 1067.43 203.955H1140.56L1140.35 203.321C1140.98 199.516 1140.98 195.501 1140.98 191.696ZM1088.56 166.757C1099.55 166.757 1106.95 172.675 1108.85 183.876H1067.01C1069.54 173.52 1076.94 166.757 1088.56 166.757Z" fill="black"/>
<path d="M1268.39 142.663H1234.15V148.158C1226.54 143.297 1217.24 140.338 1206.04 140.338C1178.35 140.338 1155.11 163.164 1155.11 193.81C1155.11 224.245 1178.35 247.282 1206.04 247.282C1217.24 247.282 1226.54 244.323 1234.15 239.462V245.168H1268.39V142.663ZM1212.81 219.172C1198.86 219.172 1188.71 207.97 1188.71 193.81C1188.71 179.649 1198.86 168.236 1212.81 168.236C1220.41 168.236 1227.81 170.561 1234.15 177.958V209.661C1227.81 217.059 1220.41 219.172 1212.81 219.172Z" fill="black"/>
<path d="M1361.09 140.972C1345.88 140.972 1334.89 145.833 1325.8 153.653V142.663H1291.56V245.168H1325.8V186.624C1333.83 178.592 1344.4 174.154 1361.09 173.52V140.972Z" fill="black"/>
<path d="M1426.43 218.538C1411.84 218.538 1402.97 207.759 1402.97 193.81C1402.97 179.861 1411.84 169.293 1426.43 169.293C1436.99 169.293 1444.81 175.422 1446.5 184.722H1478.84C1476.52 158.303 1454.75 140.338 1426.43 140.338C1394.09 140.338 1370.42 162.741 1370.42 193.81C1370.42 225.09 1394.09 247.493 1426.43 247.493C1454.75 247.493 1476.52 229.528 1478.84 203.109H1446.5C1444.81 212.409 1436.99 218.538 1426.43 218.538Z" fill="black"/>
<path d="M1559.52 139.492C1548.53 139.492 1539.45 143.085 1531.2 149.637V95.1084H1496.96V245.168H1531.2V180.917C1537.12 174.154 1543.88 170.561 1550.22 170.561C1561.43 170.561 1568.82 177.536 1568.82 192.119V245.168H1603.27V186.624C1603.27 157.457 1585.52 139.492 1559.52 139.492Z" fill="black"/>
<g clip-path="url(#clip0)">
<path d="M269.252 43.6412L189.722 9.88265C133.085 -14.1582 67.6829 12.266 43.642 68.9027L9.88347 148.433C-14.1574 205.07 12.2668 270.472 68.9036 294.513L148.434 328.271C205.07 352.312 270.473 325.888 294.513 269.251L328.272 189.721C352.313 133.084 325.889 67.6821 269.252 43.6412Z" fill="url(#paint0_linear)"/>
<path fill-rule="evenodd" clip-rule="evenodd" d="M91.3574 44.1714L133.086 26.4586C169.457 11.0203 186.546 8.72677 204.655 10.3551C222.764 11.9834 239.263 18.6495 253.421 30.0576C267.578 41.4658 278.278 54.9871 293.717 91.3574L311.429 133.086C326.868 169.457 329.161 186.546 327.533 204.655C325.905 222.764 319.239 239.263 307.83 253.421C296.422 267.578 282.901 278.278 246.531 293.717L204.802 311.43C168.431 326.868 151.342 329.161 133.233 327.533C115.124 325.905 98.6249 319.239 84.4673 307.831C70.3098 296.422 59.6097 282.901 44.1714 246.531L26.4585 204.802C11.0202 168.431 8.72672 151.342 10.355 133.233C11.9834 115.124 18.6494 98.6249 30.0576 84.4674C41.4657 70.3098 54.987 59.6097 91.3574 44.1714Z" fill="url(#paint1_linear)"/>
<path fill-rule="evenodd" clip-rule="evenodd" d="M213.685 113.564C239.379 113.564 258.429 132.392 258.429 162.959V224.316H222.323V168.718C222.323 153.435 215.014 146.125 203.052 146.125C197.515 146.125 191.977 148.561 186.661 154.985C186.883 157.643 187.104 160.301 187.104 162.959V224.316H151.22V168.718C151.22 153.435 143.689 146.125 131.95 146.125C126.412 146.125 121.096 148.783 115.78 155.65V224.316H79.896V116.886H115.78V123.31C123.089 117.108 130.621 113.564 142.582 113.564C156.094 113.564 167.612 118.658 175.586 127.962C186.883 117.994 197.736 113.564 213.685 113.564Z" fill="white"/>
</g>
<defs>
<linearGradient id="paint0_linear" x1="103.981" y1="-26.5123" x2="250.984" y2="371.801" gradientUnits="userSpaceOnUse">
<stop stop-color="#E41359"/>
<stop offset="1" stop-color="#F23C79"/>
</linearGradient>
<linearGradient id="paint1_linear" x1="112.222" y1="35.315" x2="225.666" y2="302.573" gradientUnits="userSpaceOnUse">
<stop stop-color="#24222F"/>
<stop offset="1" stop-color="#2B2937"/>
</linearGradient>
<clipPath id="clip0">
<rect width="338.163" height="338.163" fill="white"/>
</clipPath>
</defs>
</svg>
