<svg width="1181" height="161" viewBox="0 0 1181 161" fill="none" xmlns="http://www.w3.org/2000/svg">
<path d="M155.132 13.5265H128.502L77.5662 90.2474L26.419 13.5265H0V157.246H35.7185L35.5072 84.7522L67.6327 134.42V134.631H87.4998V134.42L119.414 85.1749V157.246H155.132V13.5265Z" fill="black"/>
<path d="M281.545 103.774C281.545 72.9165 258.931 52.4153 229.13 52.4153C196.371 52.4153 174.601 74.8186 174.601 105.887C174.601 137.168 197.005 159.571 230.61 159.571C255.972 159.571 275.628 146.256 280.489 125.12H246.672C243.713 129.77 238.218 132.518 231.032 132.518C217.928 132.518 210.743 125.332 207.995 116.032H281.123L280.911 115.398C281.545 111.594 281.545 107.578 281.545 103.774ZM229.13 78.8343C240.12 78.8343 247.518 84.7522 249.42 95.9539H207.572C210.108 85.5976 217.506 78.8343 229.13 78.8343Z" fill="black"/>
<path d="M317.457 38.6774C328.447 38.6774 337.535 30.4347 337.535 19.4444C337.535 8.24273 328.447 0 317.457 0C306.255 0 297.378 8.24273 297.378 19.4444C297.378 30.4347 306.255 38.6774 317.457 38.6774ZM334.788 54.7402H300.549V157.246H334.788V54.7402Z" fill="black"/>
<path d="M392.888 7.18597H358.649V157.246H392.888V7.18597Z" fill="black"/>
<path d="M434.109 38.6774C445.1 38.6774 454.188 30.4347 454.188 19.4444C454.188 8.24273 445.1 0 434.109 0C422.908 0 414.031 8.24273 414.031 19.4444C414.031 30.4347 422.908 38.6774 434.109 38.6774ZM451.44 54.7402H417.201V157.246H451.44V54.7402Z" fill="black"/>
<path d="M534.903 10.3562C501.086 10.3562 477.837 28.5325 477.837 57.2764C477.837 80.1025 491.153 93.4176 519.474 99.5469L543.145 104.831C555.404 107.156 558.363 112.228 558.363 117.089C558.363 124.909 551.388 129.77 538.073 129.77C521.165 129.77 510.174 122.162 507.849 109.48H472.131C475.513 144.988 504.679 160.205 537.016 160.205C572.946 160.205 596.617 142.24 596.617 113.496C596.617 88.7679 579.498 78.2003 553.29 72.4938L533.212 67.844C522.433 65.5192 516.726 62.1375 516.726 54.3175C516.726 45.018 524.969 39.9456 537.227 39.9456C551.811 39.9456 558.574 47.3429 560.476 58.1218H596.406C592.813 19.4444 558.151 10.3562 534.903 10.3562Z" fill="black"/>
<path d="M718.275 103.774C718.275 72.9165 695.66 52.4153 665.86 52.4153C633.1 52.4153 611.331 74.8186 611.331 105.887C611.331 137.168 633.734 159.571 667.339 159.571C692.701 159.571 712.357 146.256 717.218 125.12H683.402C680.443 129.77 674.948 132.518 667.762 132.518C654.658 132.518 647.472 125.332 644.724 116.032H717.852L717.641 115.398C718.275 111.594 718.275 107.578 718.275 103.774ZM665.86 78.8343C676.85 78.8343 684.247 84.7522 686.149 95.9539H644.302C646.838 85.5976 654.235 78.8343 665.86 78.8343Z" fill="black"/>
<path d="M845.687 54.7402H811.448V60.2354C803.839 55.3743 794.54 52.4153 783.338 52.4153C755.651 52.4153 732.402 75.2414 732.402 105.887C732.402 136.322 755.651 159.36 783.338 159.36C794.54 159.36 803.839 156.401 811.448 151.539V157.246H845.687V54.7402ZM790.101 131.25C776.152 131.25 766.007 120.048 766.007 105.887C766.007 91.7268 776.152 80.3138 790.101 80.3138C797.71 80.3138 805.107 82.6387 811.448 90.036V121.739C805.107 129.136 797.71 131.25 790.101 131.25Z" fill="black"/>
<path d="M938.391 53.0494C923.174 53.0494 912.183 57.9105 903.095 65.7305V54.7402H868.856V157.246H903.095V98.7014C911.127 90.6701 921.694 86.2317 938.391 85.5976V53.0494Z" fill="black"/>
<path d="M1003.72 130.616C989.138 130.616 980.261 119.837 980.261 105.887C980.261 91.9382 989.138 81.3706 1003.72 81.3706C1014.29 81.3706 1022.11 87.4998 1023.8 96.7993H1056.14C1053.81 70.3803 1032.04 52.4153 1003.72 52.4153C971.385 52.4153 947.713 74.8186 947.713 105.887C947.713 137.168 971.385 159.571 1003.72 159.571C1032.04 159.571 1053.81 141.606 1056.14 115.187H1023.8C1022.11 124.486 1014.29 130.616 1003.72 130.616Z" fill="black"/>
<path d="M1136.82 51.5699C1125.83 51.5699 1116.74 55.1629 1108.5 61.7148V7.18597H1074.26V157.246H1108.5V92.9949C1114.42 86.2317 1121.18 82.6387 1127.52 82.6387C1138.72 82.6387 1146.12 89.6133 1146.12 104.197V157.246H1180.57V98.7014C1180.57 69.5349 1162.82 51.5699 1136.82 51.5699Z" fill="black"/>
</svg>
