<svg width="300" height="300" viewBox="0 0 300 300" fill="none" xmlns="http://www.w3.org/2000/svg">
<path d="M223.929 57.1383L165.133 32.1811C123.262 14.408 74.9115 33.943 57.1384 75.8139L32.1811 134.61C14.408 176.48 33.9431 224.831 75.8139 242.604L134.61 267.562C176.48 285.335 224.831 265.8 242.604 223.929L267.562 165.133C285.335 123.262 265.8 74.9115 223.929 57.1383Z" fill="url(#paint0_linear)"/>
<path fill-rule="evenodd" clip-rule="evenodd" d="M92.4142 57.5303L123.264 44.4354C150.152 33.0221 162.786 31.3265 176.174 32.5303C189.561 33.7341 201.759 38.6622 212.226 47.0962C222.692 55.5301 230.603 65.5262 242.016 92.4143L255.111 123.264C266.524 150.152 268.22 162.786 267.016 176.174C265.812 189.562 260.884 201.759 252.45 212.226C244.016 222.692 234.02 230.603 207.132 242.016L176.282 255.111C149.394 266.524 136.76 268.22 123.372 267.016C109.985 265.812 97.7869 260.884 87.3204 252.45C76.8539 244.016 68.9435 234.02 57.5301 207.132L44.4352 176.282C33.0219 149.394 31.3264 136.76 32.5302 123.372C33.734 109.985 38.6621 97.7871 47.096 87.3206C55.5299 76.8541 65.526 68.9437 92.4142 57.5303Z" fill="url(#paint1_linear)"/>
<path fill-rule="evenodd" clip-rule="evenodd" d="M182.849 108.831C201.844 108.831 215.927 122.75 215.927 145.349V190.709H189.235V149.606C189.235 138.307 183.831 132.903 174.988 132.903C170.894 132.903 166.801 134.705 162.87 139.453C163.034 141.419 163.198 143.384 163.198 145.349V190.709H136.67V149.606C136.67 138.307 131.102 132.903 122.423 132.903C118.329 132.903 114.399 134.868 110.469 139.945V190.709H83.9403V111.288H110.469V116.036C115.873 111.451 121.44 108.831 130.283 108.831C140.272 108.831 148.787 112.598 154.683 119.475C163.034 112.106 171.058 108.831 182.849 108.831Z" fill="white"/>
<g filter="url(#filter0_d)">
<rect x="180" y="180" width="100" height="100" rx="20" fill="white"/>
</g>
<path d="M216.852 220.384C219.911 229.738 221.068 246.423 230.013 246.423C230.694 246.423 231.382 246.357 232.072 246.225C223.942 244.329 222.978 227.826 218.017 219.279C217.628 219.633 217.242 220.001 216.852 220.384" fill="url(#paint2_linear)"/>
<path d="M218.017 219.279C222.978 227.826 223.942 244.329 232.072 246.225C232.711 246.108 233.351 245.93 233.993 245.706C226.695 242.13 224.678 226.104 219.043 218.388C218.702 218.673 218.359 218.97 218.017 219.279" fill="url(#paint3_linear)"/>
<path d="M225.166 214.196C224.486 214.196 223.797 214.263 223.105 214.394C221.295 214.736 219.457 215.515 217.603 216.694C218.109 217.194 218.592 217.766 219.044 218.39C220.929 216.826 222.802 215.67 224.667 214.975C225.367 214.716 226.066 214.521 226.765 214.392C226.26 214.263 225.728 214.196 225.166 214.196" fill="#14559A"/>
<path d="M239.689 242.411C240.435 241.817 241.184 241.16 241.933 240.444C238.825 231.134 237.713 214.21 228.706 214.21C228.062 214.21 227.412 214.27 226.765 214.39C234.968 216.43 236.019 234.28 239.689 242.411Z" fill="url(#paint4_linear)"/>
<path d="M226.765 214.391C226.26 214.262 225.728 214.195 225.165 214.195L228.707 214.209C228.063 214.209 227.413 214.268 226.765 214.391Z" fill="#3092C4"/>
<path d="M239.532 244.388C239.18 244.052 238.846 243.684 238.517 243.29C237.002 244.363 235.492 245.177 233.993 245.706C234.526 245.967 235.086 246.16 235.68 246.281C236.14 246.375 236.616 246.423 237.117 246.423C238.8 246.423 240.13 246.224 241.263 245.681C240.639 245.343 240.067 244.907 239.532 244.388" fill="#1969BC"/>
<path d="M224.667 214.976C232.015 218.819 232.654 236.224 238.517 243.291C238.91 243.014 239.299 242.721 239.688 242.411C236.017 234.28 234.968 216.429 226.766 214.39C226.065 214.521 225.367 214.715 224.667 214.976" fill="url(#paint5_linear)"/>
<path d="M219.043 218.389C224.678 226.105 226.695 242.131 233.993 245.707C235.493 245.177 237.002 244.364 238.517 243.291C232.654 236.224 232.015 218.819 224.666 214.976C222.801 215.67 220.928 216.825 219.043 218.389" fill="url(#paint6_linear)"/>
<path d="M213.247 220.159C212.363 222.156 211.461 224.78 210.371 228.207C212.539 225.151 214.701 222.518 216.851 220.384C216.554 219.474 216.237 218.634 215.895 217.887C215.016 218.56 214.13 219.317 213.247 220.159" fill="url(#paint7_linear)"/>
<path d="M216.678 217.311C216.419 217.497 216.157 217.687 215.896 217.887C216.239 218.635 216.556 219.474 216.852 220.384C217.243 220.003 217.63 219.632 218.018 219.279C217.6 218.564 217.158 217.904 216.678 217.311Z" fill="#2B74B1"/>
<path d="M217.602 216.694C217.294 216.889 216.988 217.095 216.677 217.31C217.157 217.903 217.599 218.563 218.017 219.28C218.36 218.97 218.702 218.672 219.044 218.389C218.591 217.765 218.109 217.194 217.602 216.694" fill="#125A9E"/>
<path d="M267.724 213.484C263.568 229.511 254.888 242.385 247.611 245.63H247.596L247.204 245.797L247.156 245.816L247.044 245.859L246.994 245.88L246.813 245.944L246.738 245.971L246.647 246L246.56 246.031L246.482 246.057L246.327 246.104L246.261 246.121L246.156 246.15L246.085 246.169L245.971 246.199L245.831 246.229C246.16 246.351 246.503 246.412 246.872 246.412C253.772 246.412 260.731 234.045 272.243 213.48H267.723L267.724 213.484V213.484Z" fill="url(#paint8_linear)"/>
<path d="M208.872 214.847L208.885 214.835L208.901 214.825H208.91L209.022 214.782L209.044 214.771L209.073 214.758L209.193 214.715H209.199L209.464 214.622L209.503 214.612L209.617 214.578L209.669 214.561L209.783 214.527L209.827 214.516L210.206 214.417L210.258 214.405L210.369 214.384L210.424 214.367L210.535 214.346H210.561L210.791 214.303H210.837L210.944 214.285L211.003 214.274L211.105 214.259L211.162 214.248L211.41 214.226C211.171 214.204 210.926 214.189 210.675 214.189C202.904 214.189 192.197 228.608 187.373 247.281H188.303C189.847 244.528 191.233 241.924 192.501 239.48C195.879 226.254 202.759 217.233 208.871 214.843" fill="url(#paint9_linear)"/>
<path d="M213.247 220.159C214.13 219.317 215.016 218.56 215.894 217.887C215.694 217.447 215.486 217.041 215.264 216.668C214.553 217.531 213.904 218.668 213.247 220.159V220.159ZM213.886 214.956C214.393 215.381 214.847 215.967 215.264 216.668C215.395 216.507 215.527 216.359 215.666 216.219C215.088 215.681 214.464 215.239 213.788 214.905L213.87 214.945L213.886 214.956Z" fill="#0D82CA"/>
<path d="M192.503 239.483C199.589 225.827 202.946 217.185 208.873 214.846C202.762 217.237 195.881 226.258 192.503 239.483" fill="url(#paint10_linear)"/>
<path d="M215.665 216.22C215.527 216.361 215.396 216.508 215.263 216.669C215.486 217.041 215.693 217.447 215.895 217.888C216.157 217.687 216.418 217.498 216.677 217.311C216.357 216.916 216.018 216.548 215.665 216.22" fill="#127BCA"/>
<path d="M195.72 247.223L195.591 247.238H195.567L195.458 247.249H195.44L195.18 247.267H195.152C202.324 247.066 205.603 243.475 207.23 238.266C208.466 234.319 209.481 230.992 210.371 228.201C207.368 232.429 204.349 237.47 201.316 243.116C199.853 245.838 197.628 246.975 195.72 247.217" fill="url(#paint11_linear)"/>
<path d="M195.72 247.22C197.628 246.977 199.853 245.841 201.316 243.118C204.349 237.474 207.369 232.432 210.37 228.203C211.463 224.776 212.363 222.153 213.247 220.156C207.265 225.85 201.26 235.318 195.72 247.217" fill="url(#paint12_linear)"/>
<path d="M192.503 239.483C191.234 241.927 189.848 244.531 188.304 247.285H191.008C191.365 244.551 191.873 241.944 192.502 239.485" fill="#05A1E6"/>
<path d="M211.163 214.257L211.105 214.268L211.004 214.282L210.945 214.293L210.838 214.312L210.792 214.323L210.561 214.363H210.536L210.423 214.385L210.367 214.4L210.258 214.421L210.206 214.434L209.826 214.533L209.783 214.546L209.668 214.58L209.616 214.593L209.502 214.627L209.461 214.638L209.197 214.73L209.078 214.772L209.028 214.793L208.916 214.834L208.879 214.853C202.953 217.192 199.596 225.834 192.51 239.489C191.88 241.949 191.371 244.556 191.015 247.289H191.394L193.994 247.278H195.186L195.446 247.26H195.463L195.572 247.249H195.598L195.727 247.234C201.266 235.336 207.272 225.868 213.254 220.174C213.911 218.683 214.56 217.545 215.269 216.683C214.854 215.982 214.4 215.395 213.893 214.969L213.878 214.958L213.793 214.917L213.71 214.875L213.628 214.835L213.532 214.795L213.457 214.762L213.3 214.697L213.233 214.671L213.117 214.624L213.053 214.604L212.891 214.548H212.877L212.689 214.494L212.647 214.481L212.488 214.437L212.451 214.426C212.323 214.392 212.191 214.364 212.057 214.34L212.016 214.329L211.845 214.301L211.812 214.291L211.609 214.264H211.574L211.418 214.247L211.17 214.27" fill="url(#paint13_linear)"/>
<path d="M251.492 222.357C250.128 226.724 249.024 230.327 248.063 233.292C251.805 228.144 255.489 221.668 258.999 214.194C254.904 215.48 252.721 218.422 251.492 222.357" fill="url(#paint14_linear)"/>
<path d="M248.181 245.357C247.991 245.455 247.799 245.546 247.611 245.631C254.888 242.385 263.569 229.511 267.724 213.484H266.882C257.334 230.54 254.263 241.959 248.181 245.357" fill="url(#paint15_linear)"/>
<path d="M243.429 243.924C245.013 241.992 246.302 238.707 248.064 233.292C246.033 236.081 243.988 238.48 241.942 240.435L241.932 240.453C242.378 241.79 242.868 242.971 243.426 243.924" fill="#079AE1"/>
<path d="M243.429 243.924C242.891 244.582 242.32 245.083 241.685 245.454C241.546 245.535 241.405 245.612 241.262 245.681C241.932 246.042 242.664 246.284 243.482 246.381L243.845 246.413H243.867L244.041 246.424H244.634L244.701 246.413L244.831 246.402H244.895L245.037 246.386H245.047L245.091 246.376L245.243 246.352H245.287L245.458 246.324H245.485L245.825 246.251C244.885 245.909 244.1 245.097 243.423 243.943" fill="#1969BC"/>
<path d="M230.013 246.423C230.693 246.423 231.381 246.356 232.072 246.224C232.711 246.108 233.351 245.93 233.992 245.706C234.525 245.967 235.086 246.16 235.678 246.281C236.138 246.375 236.615 246.423 237.117 246.423H230.013ZM237.117 246.423C238.799 246.423 240.13 246.224 241.262 245.681C241.932 246.043 242.664 246.284 243.482 246.381L243.845 246.412H243.867L244.041 246.423H244.251H237.117V246.423Z" fill="#1E5CB3"/>
<path d="M244.251 246.423H244.639L244.706 246.412L244.838 246.401H244.903L245.044 246.386H245.056L245.099 246.375L245.251 246.352L245.296 246.342L245.468 246.314H245.495L245.835 246.242C246.164 246.363 246.506 246.425 246.876 246.425L244.253 246.436L244.251 246.423V246.423Z" fill="#1D60B5"/>
<path d="M241.935 240.453V240.442C241.186 241.159 240.438 241.816 239.691 242.41C239.301 242.719 238.912 243.013 238.519 243.289C238.847 243.682 239.182 244.052 239.534 244.387C240.07 244.906 240.641 245.343 241.264 245.68C241.407 245.61 241.548 245.534 241.686 245.453C242.323 245.082 242.892 244.581 243.432 243.924C242.873 242.971 242.384 241.79 241.938 240.453" fill="#175FAB"/>
<path d="M264.215 213.484H259.977L259.305 213.517L258.992 214.186C255.483 221.66 251.798 228.136 248.057 233.285C246.298 238.698 245.006 241.984 243.423 243.917C244.1 245.072 244.888 245.884 245.823 246.228L245.897 246.212H245.912L245.964 246.2L246.081 246.171L246.151 246.151L246.256 246.123L246.321 246.105L246.477 246.057L246.555 246.032L246.643 246L246.732 245.971L246.805 245.943L246.988 245.879L247.039 245.861L247.151 245.817L247.199 245.8L247.592 245.632H247.605C247.793 245.549 247.984 245.456 248.174 245.359C254.258 241.96 257.329 230.542 266.877 213.486H264.21L264.215 213.484V213.484Z" fill="url(#paint16_linear)"/>
<path d="M211.412 214.234L211.456 214.245L211.566 214.257H211.604L211.805 214.282L211.84 214.294L212.01 214.322L212.053 214.332L212.446 214.419L212.482 214.431L212.64 214.475L212.683 214.488L212.871 214.542L212.884 214.553L213.049 214.609L213.111 214.629L213.229 214.677L213.295 214.701L213.451 214.766L213.528 214.799L213.621 214.84L213.705 214.879L213.788 214.922C214.465 215.255 215.089 215.699 215.666 216.236C215.878 216.012 216.101 215.812 216.332 215.631C215.07 214.736 213.639 214.225 211.99 214.225C211.798 214.225 211.608 214.237 211.413 214.251" fill="#7DCBEC"/>
<path d="M215.665 216.22C216.018 216.548 216.357 216.916 216.677 217.311C216.987 217.096 217.294 216.888 217.603 216.694C217.199 216.29 216.773 215.927 216.33 215.615C216.099 215.793 215.877 215.996 215.665 216.22" fill="#5EC5ED"/>
<path d="M211.229 214.28L211.804 214.255C213.454 214.255 214.886 214.764 216.146 215.659C217.48 214.61 219.088 214.241 221.327 214.241H210.495L211.229 214.28" fill="url(#paint17_linear)"/>
<path d="M221.327 214.241C219.091 214.241 217.48 214.61 216.146 215.659C216.588 215.972 217.013 216.333 217.417 216.737C219.27 215.557 221.109 214.778 222.92 214.434C223.612 214.304 224.3 214.238 224.981 214.238H221.327V214.241Z" fill="url(#paint18_linear)"/>
<path d="M248.063 233.295C249.025 230.328 250.127 226.726 251.493 222.358C252.724 218.422 254.904 215.478 258.997 214.194L259.313 213.525C252.64 213.925 249.521 217.32 247.952 222.347C245.207 231.123 243.544 236.811 241.944 240.437C243.988 238.481 246.032 236.082 248.063 233.295Z" fill="url(#paint19_linear)"/>
<defs>
<filter id="filter0_d" x="176" y="176" width="108" height="108" filterUnits="userSpaceOnUse" color-interpolation-filters="sRGB">
<feFlood flood-opacity="0" result="BackgroundImageFix"/>
<feColorMatrix in="SourceAlpha" type="matrix" values="0 0 0 0 0 0 0 0 0 0 0 0 0 0 0 0 0 0 127 0"/>
<feOffset/>
<feGaussianBlur stdDeviation="2"/>
<feColorMatrix type="matrix" values="0 0 0 0 0 0 0 0 0 0 0 0 0 0 0 0 0 0 0.25 0"/>
<feBlend mode="normal" in2="BackgroundImageFix" result="effect1_dropShadow"/>
<feBlend mode="normal" in="SourceGraphic" in2="effect1_dropShadow" result="shape"/>
</filter>
<linearGradient id="paint0_linear" x1="101.746" y1="5.27474" x2="210.423" y2="299.743" gradientUnits="userSpaceOnUse">
<stop stop-color="#E41359"/>
<stop offset="1" stop-color="#F23C79"/>
</linearGradient>
<linearGradient id="paint1_linear" x1="107.839" y1="50.9829" x2="191.707" y2="248.563" gradientUnits="userSpaceOnUse">
<stop stop-color="#24222F"/>
<stop offset="1" stop-color="#2B2937"/>
</linearGradient>
<linearGradient id="paint2_linear" x1="224.627" y1="214.09" x2="224.627" y2="254.486" gradientUnits="userSpaceOnUse">
<stop stop-color="#0994DC"/>
<stop offset="0.35" stop-color="#66CEF5"/>
<stop offset="0.846" stop-color="#127BCA"/>
<stop offset="1" stop-color="#127BCA"/>
</linearGradient>
<linearGradient id="paint3_linear" x1="226.052" y1="212.893" x2="226.052" y2="254.425" gradientUnits="userSpaceOnUse">
<stop stop-color="#0E76BC"/>
<stop offset="0.36" stop-color="#36AEE8"/>
<stop offset="0.846" stop-color="#00ADEF"/>
<stop offset="1" stop-color="#00ADEF"/>
</linearGradient>
<linearGradient id="paint4_linear" x1="234.335" y1="245.419" x2="234.335" y2="212.457" gradientUnits="userSpaceOnUse">
<stop stop-color="#1C63B7"/>
<stop offset="0.5" stop-color="#33BDF2"/>
<stop offset="1" stop-color="#33BDF2" stop-opacity="0.42"/>
</linearGradient>
<linearGradient id="paint5_linear" x1="232.116" y1="208.692" x2="232.116" y2="251.812" gradientUnits="userSpaceOnUse">
<stop stop-color="#166AB8"/>
<stop offset="0.4" stop-color="#36AEE8"/>
<stop offset="0.846" stop-color="#0798DD"/>
<stop offset="1" stop-color="#0798DD"/>
</linearGradient>
<linearGradient id="paint6_linear" x1="228.98" y1="208.991" x2="228.98" y2="254.845" gradientUnits="userSpaceOnUse">
<stop stop-color="#124379"/>
<stop offset="0.39" stop-color="#1487CB"/>
<stop offset="0.78" stop-color="#165197"/>
<stop offset="1" stop-color="#165197"/>
</linearGradient>
<linearGradient id="paint7_linear" x1="210.023" y1="222.493" x2="216.503" y2="222.493" gradientUnits="userSpaceOnUse">
<stop stop-color="#33BDF2" stop-opacity="0.698"/>
<stop offset="1" stop-color="#1DACD8"/>
</linearGradient>
<linearGradient id="paint8_linear" x1="259.067" y1="244.579" x2="259.067" y2="212.387" gradientUnits="userSpaceOnUse">
<stop stop-color="#136AB4"/>
<stop offset="0.6" stop-color="#59CAF5" stop-opacity="0.549"/>
<stop offset="1" stop-color="#59CAF5" stop-opacity="0.235"/>
</linearGradient>
<linearGradient id="paint9_linear" x1="187.031" y1="230.183" x2="211.062" y2="230.183" gradientUnits="userSpaceOnUse">
<stop stop-color="#05A1E6" stop-opacity="0.247"/>
<stop offset="1" stop-color="#05A1E6"/>
</linearGradient>
<linearGradient id="paint10_linear" x1="200.817" y1="245.441" x2="200.817" y2="212.565" gradientUnits="userSpaceOnUse">
<stop stop-color="#318ED5"/>
<stop offset="1" stop-color="#38A7E4"/>
</linearGradient>
<linearGradient id="paint11_linear" x1="202.657" y1="245.545" x2="202.657" y2="213.505" gradientUnits="userSpaceOnUse">
<stop stop-color="#05A1E6"/>
<stop offset="1" stop-color="#05A1E6" stop-opacity="0.549"/>
</linearGradient>
<linearGradient id="paint12_linear" x1="204.586" y1="247.28" x2="204.586" y2="220.206" gradientUnits="userSpaceOnUse">
<stop stop-color="#1959A6"/>
<stop offset="0.5" stop-color="#05A1E6"/>
<stop offset="0.918" stop-color="#7EC5EA"/>
<stop offset="1" stop-color="#7EC5EA"/>
</linearGradient>
<linearGradient id="paint13_linear" x1="205.469" y1="245.451" x2="200.306" y2="216.17" gradientUnits="userSpaceOnUse">
<stop stop-color="#165096"/>
<stop offset="1" stop-color="#0D82CA"/>
</linearGradient>
<linearGradient id="paint14_linear" x1="253.391" y1="228.85" x2="253.391" y2="213.508" gradientUnits="userSpaceOnUse">
<stop stop-color="#05A1E6"/>
<stop offset="0.874" stop-color="#0495D6"/>
<stop offset="1" stop-color="#0495D6"/>
</linearGradient>
<linearGradient id="paint15_linear" x1="260.823" y1="212.182" x2="254.601" y2="247.468" gradientUnits="userSpaceOnUse">
<stop stop-color="#38A7E4" stop-opacity="0.329"/>
<stop offset="0.962" stop-color="#0E88D3"/>
<stop offset="1" stop-color="#0E88D3"/>
</linearGradient>
<linearGradient id="paint16_linear" x1="254.976" y1="213.429" x2="254.976" y2="246.812" gradientUnits="userSpaceOnUse">
<stop stop-color="#168CD4"/>
<stop offset="0.5" stop-color="#1C87CC"/>
<stop offset="1" stop-color="#154B8D"/>
</linearGradient>
<linearGradient id="paint17_linear" x1="209.711" y1="210.096" x2="248.628" y2="226.237" gradientUnits="userSpaceOnUse">
<stop stop-color="#97D6EE"/>
<stop offset="0.703" stop-color="#55C1EA"/>
<stop offset="1" stop-color="#55C1EA"/>
</linearGradient>
<linearGradient id="paint18_linear" x1="220.356" y1="219.368" x2="251.093" y2="205.434" gradientUnits="userSpaceOnUse">
<stop stop-color="#7ACCEC"/>
<stop offset="1" stop-color="#3FB7ED"/>
</linearGradient>
<linearGradient id="paint19_linear" x1="250.494" y1="215.2" x2="250.494" y2="247.936" gradientUnits="userSpaceOnUse">
<stop stop-color="#1DA7E7"/>
<stop offset="1" stop-color="#37ABE7" stop-opacity="0"/>
</linearGradient>
</defs>
</svg>
