<svg width="339" height="339" viewBox="0 0 339 339" fill="none" xmlns="http://www.w3.org/2000/svg">
<g clip-path="url(#clip0)">
<path d="M269.252 43.6413L189.722 9.88277C133.086 -14.1581 67.6834 12.2661 43.6425 68.9029L9.88396 148.433C-14.1569 205.07 12.2673 270.472 68.904 294.513L148.434 328.271C205.071 352.312 270.473 325.888 294.514 269.251L328.272 189.721C352.313 133.084 325.889 67.6822 269.252 43.6413Z" fill="url(#paint0_linear)"/>
<path fill-rule="evenodd" clip-rule="evenodd" d="M91.3579 44.1716L133.087 26.4587C169.457 11.0204 186.547 8.72695 204.656 10.3553C222.765 11.9836 239.264 18.6496 253.421 30.0578C267.579 41.466 278.279 54.9873 293.717 91.3576L311.43 133.087C326.868 169.457 329.162 186.547 327.533 204.655C325.905 222.764 319.239 239.263 307.831 253.421C296.423 267.579 282.901 278.279 246.531 293.717L204.802 311.43C168.432 326.868 151.342 329.162 133.233 327.533C115.124 325.905 98.6254 319.239 84.4678 307.831C70.3103 296.423 59.6102 282.901 44.1719 246.531L26.459 204.802C11.0207 168.432 8.7272 151.342 10.3555 133.233C11.9838 115.124 18.6499 98.6251 30.0581 84.4676C41.4662 70.31 54.9875 59.6099 91.3579 44.1716Z" fill="url(#paint1_linear)"/>
<path fill-rule="evenodd" clip-rule="evenodd" d="M213.685 113.564C239.38 113.564 258.429 132.392 258.429 162.959V224.316H222.324V168.718C222.324 153.435 215.014 146.125 203.053 146.125C197.515 146.125 191.978 148.562 186.662 154.985C186.883 157.643 187.105 160.301 187.105 162.959V224.316H151.221V168.718C151.221 153.435 143.69 146.125 131.95 146.125C126.412 146.125 121.096 148.783 115.78 155.65V224.316H79.8965V116.886H115.78V123.31C123.09 117.108 130.621 113.564 142.582 113.564C156.094 113.564 167.612 118.658 175.586 127.962C186.883 117.994 197.737 113.564 213.685 113.564Z" fill="white"/>
</g>
<defs>
<linearGradient id="paint0_linear" x1="103.981" y1="-26.5122" x2="250.984" y2="371.801" gradientUnits="userSpaceOnUse">
<stop stop-color="#E41359"/>
<stop offset="1" stop-color="#F23C79"/>
</linearGradient>
<linearGradient id="paint1_linear" x1="112.222" y1="35.3152" x2="225.667" y2="302.573" gradientUnits="userSpaceOnUse">
<stop stop-color="#24222F"/>
<stop offset="1" stop-color="#2B2937"/>
</linearGradient>
<clipPath id="clip0">
<rect width="338.163" height="338.163" fill="white"/>
</clipPath>
</defs>
</svg>
