<?xml version="1.0" encoding="UTF-8" standalone="no"?>
<!DOCTYPE svg PUBLIC "-//W3C//DTD SVG 1.1//EN" "http://www.w3.org/Graphics/SVG/1.1/DTD/svg11.dtd">
<svg width="100%" height="100%" viewBox="0 0 1620 370" version="1.1" xmlns="http://www.w3.org/2000/svg" xmlns:xlink="http://www.w3.org/1999/xlink" xml:space="preserve" xmlns:serif="http://www.serif.com/" style="fill-rule:evenodd;clip-rule:evenodd;stroke-linejoin:round;stroke-miterlimit:2;">
    <g transform="matrix(1,0,0,1,7.86576,15.9231)">
        <g>
            <path d="M269.252,43.641L189.722,9.883C133.085,-14.158 67.683,12.266 43.642,68.903L9.883,148.433C-14.157,205.07 12.267,270.472 68.904,294.513L148.434,328.271C205.07,352.312 270.473,325.888 294.513,269.251L328.272,189.721C352.313,133.084 325.889,67.682 269.252,43.641Z" style="fill:url(#_Linear1);fill-rule:nonzero;"/>
            <path d="M91.357,44.171L133.086,26.459C169.457,11.02 186.546,8.727 204.655,10.355C222.764,11.983 239.263,18.65 253.421,30.058C267.578,41.466 278.278,54.987 293.717,91.357L311.429,133.086C326.868,169.457 329.161,186.546 327.533,204.655C325.905,222.764 319.239,239.263 307.83,253.421C296.422,267.578 282.901,278.278 246.531,293.717L204.802,311.43C168.431,326.868 151.342,329.161 133.233,327.533C115.124,325.905 98.625,319.239 84.467,307.831C70.31,296.422 59.61,282.901 44.171,246.531L26.459,204.802C11.02,168.431 8.727,151.342 10.355,133.233C11.983,115.124 18.649,98.625 30.058,84.467C41.466,70.31 54.987,59.61 91.357,44.171Z" style="fill:url(#_Linear2);"/>
            <path d="M213.685,113.564C239.379,113.564 258.429,132.392 258.429,162.959L258.429,224.316L222.323,224.316L222.323,168.718C222.323,153.435 215.014,146.125 203.052,146.125C197.515,146.125 191.977,148.561 186.661,154.985C186.883,157.643 187.104,160.301 187.104,162.959L187.104,224.316L151.22,224.316L151.22,168.718C151.22,153.435 143.689,146.125 131.95,146.125C126.412,146.125 121.096,148.783 115.78,155.65L115.78,224.316L79.896,224.316L79.896,116.886L115.78,116.886L115.78,123.31C123.089,117.108 130.621,113.564 142.582,113.564C156.094,113.564 167.612,118.658 175.586,127.962C186.883,117.994 197.736,113.564 213.685,113.564Z" style="fill:white;"/>
            <path d="M577.837,101.449L551.206,101.449L500.27,178.17L449.123,101.449L422.704,101.449L422.704,245.168L458.423,245.168L458.211,172.675L490.337,222.342L490.337,222.554L510.204,222.554L510.204,222.342L542.118,173.097L542.118,245.168L577.837,245.168L577.837,101.449Z" style="fill:white;fill-rule:nonzero;"/>
            <path d="M704.25,191.696C704.25,160.839 681.635,140.338 651.834,140.338C619.075,140.338 597.305,162.741 597.305,193.81C597.305,225.09 619.709,247.493 653.314,247.493C678.676,247.493 698.332,234.178 703.193,213.043L669.376,213.043C666.418,217.693 660.922,220.44 653.736,220.44C640.633,220.44 633.447,213.254 630.699,203.955L703.827,203.955L703.616,203.321C704.25,199.516 704.25,195.501 704.25,191.696ZM651.834,166.757C662.825,166.757 670.222,172.675 672.124,183.876L630.276,183.876C632.813,173.52 640.21,166.757 651.834,166.757Z" style="fill:white;fill-rule:nonzero;"/>
            <path d="M740.161,126.6C751.151,126.6 760.239,118.357 760.239,107.367C760.239,96.165 751.151,87.922 740.161,87.922C728.959,87.922 720.082,96.165 720.082,107.367C720.082,118.357 728.959,126.6 740.161,126.6ZM757.492,142.663L723.253,142.663L723.253,245.168L757.492,245.168L757.492,142.663Z" style="fill:white;fill-rule:nonzero;"/>
            <rect x="781.353" y="95.108" width="34.239" height="150.06" style="fill:white;fill-rule:nonzero;"/>
            <path d="M856.813,126.6C867.804,126.6 876.892,118.357 876.892,107.367C876.892,96.165 867.804,87.922 856.813,87.922C845.612,87.922 836.735,96.165 836.735,107.367C836.735,118.357 845.612,126.6 856.813,126.6ZM874.144,142.663L839.905,142.663L839.905,245.168L874.144,245.168L874.144,142.663Z" style="fill:white;fill-rule:nonzero;"/>
            <path d="M957.607,98.279C923.79,98.279 900.542,116.455 900.542,145.199C900.542,168.025 913.857,181.34 942.178,187.469L965.849,192.753C978.108,195.078 981.067,200.15 981.067,205.012C981.067,212.832 974.092,217.693 960.777,217.693C943.869,217.693 932.878,210.084 930.554,197.403L894.835,197.403C898.217,232.91 927.383,248.127 959.72,248.127C995.65,248.127 1019.32,230.162 1019.32,201.419C1019.32,176.69 1002.2,166.123 975.994,160.416L955.916,155.766C945.137,153.442 939.43,150.06 939.43,142.24C939.43,132.94 947.673,127.868 959.932,127.868C974.515,127.868 981.278,135.265 983.18,146.044L1019.11,146.044C1015.52,107.367 980.855,98.279 957.607,98.279Z" style="fill:white;fill-rule:nonzero;"/>
            <path d="M1140.98,191.696C1140.98,160.839 1118.36,140.338 1088.56,140.338C1055.8,140.338 1034.03,162.741 1034.03,193.81C1034.03,225.09 1056.44,247.493 1090.04,247.493C1115.41,247.493 1135.06,234.178 1139.92,213.043L1106.11,213.043C1103.15,217.693 1097.65,220.44 1090.47,220.44C1077.36,220.44 1070.18,213.254 1067.43,203.955L1140.56,203.955L1140.35,203.321C1140.98,199.516 1140.98,195.501 1140.98,191.696ZM1088.56,166.757C1099.55,166.757 1106.95,172.675 1108.85,183.876L1067.01,183.876C1069.54,173.52 1076.94,166.757 1088.56,166.757Z" style="fill:white;fill-rule:nonzero;"/>
            <path d="M1268.39,142.663L1234.15,142.663L1234.15,148.158C1226.54,143.297 1217.24,140.338 1206.04,140.338C1178.35,140.338 1155.11,163.164 1155.11,193.81C1155.11,224.245 1178.35,247.282 1206.04,247.282C1217.24,247.282 1226.54,244.323 1234.15,239.462L1234.15,245.168L1268.39,245.168L1268.39,142.663ZM1212.81,219.172C1198.86,219.172 1188.71,207.97 1188.71,193.81C1188.71,179.649 1198.86,168.236 1212.81,168.236C1220.41,168.236 1227.81,170.561 1234.15,177.958L1234.15,209.661C1227.81,217.059 1220.41,219.172 1212.81,219.172Z" style="fill:white;fill-rule:nonzero;"/>
            <path d="M1361.09,140.972C1345.88,140.972 1334.89,145.833 1325.8,153.653L1325.8,142.663L1291.56,142.663L1291.56,245.168L1325.8,245.168L1325.8,186.624C1333.83,178.592 1344.4,174.154 1361.09,173.52L1361.09,140.972Z" style="fill:white;fill-rule:nonzero;"/>
            <path d="M1426.43,218.538C1411.84,218.538 1402.97,207.759 1402.97,193.81C1402.97,179.861 1411.84,169.293 1426.43,169.293C1436.99,169.293 1444.81,175.422 1446.5,184.722L1478.84,184.722C1476.52,158.303 1454.75,140.338 1426.43,140.338C1394.09,140.338 1370.42,162.741 1370.42,193.81C1370.42,225.09 1394.09,247.493 1426.43,247.493C1454.75,247.493 1476.52,229.528 1478.84,203.109L1446.5,203.109C1444.81,212.409 1436.99,218.538 1426.43,218.538Z" style="fill:white;fill-rule:nonzero;"/>
            <path d="M1559.52,139.492C1548.53,139.492 1539.45,143.085 1531.2,149.637L1531.2,95.108L1496.96,95.108L1496.96,245.168L1531.2,245.168L1531.2,180.917C1537.12,174.154 1543.88,170.561 1550.22,170.561C1561.43,170.561 1568.82,177.536 1568.82,192.119L1568.82,245.168L1603.27,245.168L1603.27,186.624C1603.27,157.457 1585.52,139.492 1559.52,139.492Z" style="fill:white;fill-rule:nonzero;"/>
        </g>
    </g>
    <defs>
        <linearGradient id="_Linear1" x1="0" y1="0" x2="1" y2="0" gradientUnits="userSpaceOnUse" gradientTransform="matrix(147.003,398.313,-398.313,147.003,103.981,-26.5123)"><stop offset="0" style="stop-color:rgb(228,19,89);stop-opacity:1"/><stop offset="1" style="stop-color:rgb(242,60,121);stop-opacity:1"/></linearGradient>
        <linearGradient id="_Linear2" x1="0" y1="0" x2="1" y2="0" gradientUnits="userSpaceOnUse" gradientTransform="matrix(113.444,267.258,-267.258,113.444,112.222,35.315)"><stop offset="0" style="stop-color:rgb(36,34,47);stop-opacity:1"/><stop offset="1" style="stop-color:rgb(43,41,55);stop-opacity:1"/></linearGradient>
    </defs>
</svg>
