<svg width="300" height="300" viewBox="0 0 300 300" fill="none" xmlns="http://www.w3.org/2000/svg">
<path d="M223.929 57.1383L165.133 32.1811C123.262 14.408 74.9115 33.943 57.1384 75.8139L32.1811 134.61C14.408 176.48 33.9431 224.831 75.8139 242.604L134.61 267.562C176.48 285.335 224.831 265.8 242.604 223.929L267.562 165.133C285.335 123.262 265.8 74.9115 223.929 57.1383Z" fill="url(#paint0_linear)"/>
<path fill-rule="evenodd" clip-rule="evenodd" d="M92.4142 57.5303L123.264 44.4354C150.152 33.0221 162.786 31.3265 176.174 32.5303C189.561 33.7341 201.759 38.6622 212.226 47.0962C222.692 55.5301 230.603 65.5262 242.016 92.4143L255.111 123.264C266.524 150.152 268.22 162.786 267.016 176.174C265.812 189.562 260.884 201.759 252.45 212.226C244.016 222.692 234.02 230.603 207.132 242.016L176.282 255.111C149.394 266.524 136.76 268.22 123.372 267.016C109.985 265.812 97.7869 260.884 87.3204 252.45C76.8539 244.016 68.9435 234.02 57.5302 207.132L44.4352 176.282C33.0219 149.394 31.3264 136.76 32.5302 123.372C33.734 109.985 38.6621 97.7871 47.096 87.3206C55.5299 76.8541 65.526 68.9437 92.4142 57.5303Z" fill="url(#paint1_linear)"/>
<path fill-rule="evenodd" clip-rule="evenodd" d="M182.849 108.831C201.844 108.831 215.927 122.75 215.927 145.349V190.709H189.235V149.606C189.235 138.307 183.831 132.903 174.988 132.903C170.894 132.903 166.801 134.705 162.87 139.453C163.034 141.419 163.198 143.384 163.198 145.349V190.709H136.67V149.606C136.67 138.307 131.102 132.903 122.423 132.903C118.329 132.903 114.399 134.868 110.469 139.945V190.709H83.9403V111.288H110.469V116.036C115.873 111.451 121.44 108.831 130.283 108.831C140.272 108.831 148.787 112.598 154.683 119.475C163.034 112.106 171.058 108.831 182.849 108.831Z" fill="white"/>
<g filter="url(#filter0_d)">
<rect x="180" y="180" width="100" height="100" rx="20" fill="white"/>
</g>
<path d="M186.259 229.414C186.259 236.014 192.709 242.175 202.876 245.648C200.846 255.862 202.513 264.095 208.079 267.303C213.801 270.6 222.325 268.318 230.415 261.25C238.301 268.032 246.272 270.701 251.833 267.484C257.55 264.177 259.288 255.386 257.201 244.853C267.792 241.354 273.716 236.101 273.716 229.414C273.716 222.967 267.255 217.39 257.224 213.94C259.47 202.971 257.567 194.939 251.77 191.598C246.181 188.378 238.118 191.185 230.116 198.144C221.79 190.757 213.807 188.502 208.016 191.852C202.433 195.082 200.839 203.464 202.876 213.867C193.052 217.29 186.259 222.993 186.259 229.414Z" fill="white"/>
<path d="M255.099 217.366C254.273 217.083 253.439 216.82 252.599 216.579C252.738 216.013 252.867 215.445 252.985 214.875C254.878 205.695 253.641 198.299 249.415 195.864C245.363 193.529 238.737 195.964 232.044 201.783C231.385 202.358 230.74 202.949 230.11 203.557C229.689 203.153 229.26 202.757 228.823 202.369C221.809 196.146 214.779 193.524 210.557 195.966C206.51 198.307 205.311 205.26 207.015 213.96C207.184 214.822 207.375 215.679 207.589 216.531C206.594 216.813 205.633 217.114 204.714 217.434C196.491 220.299 191.24 224.789 191.24 229.446C191.24 234.256 196.877 239.08 205.442 242.005C206.136 242.241 206.837 242.46 207.542 242.661C207.313 243.579 207.11 244.503 206.932 245.432C205.308 253.981 206.576 260.77 210.613 263.097C214.783 265.499 221.782 263.03 228.597 257.077C229.135 256.607 229.676 256.108 230.217 255.584C230.899 256.242 231.599 256.88 232.317 257.499C238.918 263.175 245.437 265.467 249.471 263.133C253.637 260.724 254.991 253.431 253.233 244.559C253.099 243.881 252.942 243.189 252.767 242.484C253.259 242.339 253.741 242.189 254.212 242.034C263.116 239.086 268.909 234.32 268.909 229.446C268.909 224.772 263.488 220.252 255.099 217.366V217.366Z" fill="#53C1DE"/>
<path d="M253.168 238.887C252.743 239.027 252.308 239.163 251.863 239.294C250.88 236.185 249.554 232.878 247.93 229.462C249.48 226.127 250.755 222.863 251.71 219.773C252.505 220.003 253.276 220.246 254.019 220.502C261.207 222.974 265.591 226.629 265.591 229.446C265.591 232.446 260.856 236.341 253.168 238.887H253.168ZM249.978 245.203C250.755 249.126 250.866 252.673 250.351 255.446C249.889 257.938 248.959 259.599 247.808 260.264C245.361 261.68 240.126 259.839 234.481 254.985C233.834 254.429 233.182 253.835 232.528 253.206C234.717 250.814 236.904 248.033 239.038 244.946C242.793 244.613 246.341 244.068 249.558 243.325C249.716 243.964 249.857 244.59 249.978 245.203V245.203ZM217.718 260.019C215.327 260.863 213.422 260.887 212.271 260.224C209.821 258.812 208.803 253.361 210.192 246.05C210.357 245.186 210.546 244.327 210.759 243.474C213.94 244.177 217.462 244.683 221.226 244.988C223.375 248.009 225.625 250.787 227.893 253.219C227.411 253.685 226.918 254.139 226.413 254.58C223.4 257.213 220.38 259.08 217.719 260.019H217.718ZM206.515 238.868C202.728 237.574 199.6 235.893 197.456 234.059C195.53 232.411 194.557 230.774 194.557 229.446C194.557 226.62 198.774 223.015 205.806 220.565C206.689 220.259 207.58 219.979 208.48 219.725C209.452 222.884 210.727 226.186 212.265 229.526C210.707 232.916 209.413 236.272 208.432 239.468C207.788 239.284 207.149 239.084 206.515 238.868V238.868ZM210.271 213.324C208.811 205.869 209.78 200.246 212.22 198.835C214.818 197.332 220.564 199.475 226.62 204.848C227.007 205.192 227.396 205.551 227.785 205.923C225.529 208.344 223.299 211.101 221.169 214.105C217.516 214.443 214.019 214.987 210.805 215.714C210.607 214.922 210.429 214.125 210.271 213.323V213.324ZM243.774 221.59C243.014 220.279 242.227 218.985 241.412 217.709C243.89 218.021 246.264 218.437 248.494 218.946C247.825 221.089 246.99 223.331 246.008 225.629C245.29 224.268 244.545 222.921 243.774 221.59V221.59ZM230.111 208.293C231.641 209.949 233.174 211.799 234.682 213.806C231.624 213.662 228.56 213.661 225.502 213.804C227.011 211.816 228.557 209.968 230.111 208.293V208.293ZM216.361 221.613C215.599 222.933 214.868 224.272 214.169 225.626C213.202 223.336 212.376 221.085 211.701 218.911C213.917 218.415 216.28 218.01 218.742 217.703C217.918 218.987 217.124 220.291 216.361 221.613V221.613ZM218.813 241.426C216.269 241.142 213.87 240.757 211.655 240.276C212.341 238.063 213.186 235.763 214.172 233.424C214.875 234.78 215.609 236.119 216.374 237.44C217.155 238.788 217.968 240.117 218.813 241.426V241.426ZM230.203 250.833C228.63 249.137 227.062 247.262 225.53 245.245C227.017 245.303 228.533 245.333 230.074 245.333C231.657 245.333 233.222 245.297 234.763 245.229C233.25 247.283 231.723 249.161 230.203 250.833ZM246.04 233.305C247.078 235.669 247.953 237.957 248.648 240.132C246.396 240.646 243.964 241.059 241.403 241.366C242.223 240.066 243.018 238.749 243.787 237.417C244.568 236.063 245.319 234.692 246.04 233.305V233.305ZM240.913 235.761C239.736 237.803 238.493 239.806 237.187 241.768C234.882 241.933 232.501 242.017 230.074 242.017C227.657 242.017 225.306 241.942 223.042 241.795C221.701 239.838 220.435 237.831 219.246 235.779C218.063 233.737 216.957 231.651 215.932 229.525C216.955 227.399 218.057 225.312 219.236 223.269V223.269C220.415 221.225 221.671 219.227 223.002 217.278C225.312 217.104 227.68 217.012 230.074 217.012C232.479 217.012 234.851 217.105 237.16 217.28C238.477 219.226 239.725 221.217 240.902 223.251C242.085 225.29 243.202 227.367 244.25 229.478C243.213 231.611 242.1 233.707 240.913 235.761H240.913ZM247.757 198.736C250.358 200.235 251.37 206.279 249.736 214.206C249.629 214.722 249.512 215.237 249.386 215.749C246.164 215.006 242.665 214.453 239.002 214.109C236.867 211.073 234.656 208.311 232.436 205.922C233.018 205.361 233.613 204.815 234.222 204.285C239.956 199.298 245.316 197.329 247.757 198.736V198.736Z" fill="white"/>
<path d="M230.074 222.515C233.905 222.515 237.01 225.618 237.01 229.446C237.01 233.273 233.905 236.376 230.074 236.376C226.244 236.376 223.139 233.273 223.139 229.446C223.139 225.618 226.244 222.515 230.074 222.515" fill="#53C1DE"/>
<defs>
<filter id="filter0_d" x="176" y="176" width="108" height="108" filterUnits="userSpaceOnUse" color-interpolation-filters="sRGB">
<feFlood flood-opacity="0" result="BackgroundImageFix"/>
<feColorMatrix in="SourceAlpha" type="matrix" values="0 0 0 0 0 0 0 0 0 0 0 0 0 0 0 0 0 0 127 0"/>
<feOffset/>
<feGaussianBlur stdDeviation="2"/>
<feColorMatrix type="matrix" values="0 0 0 0 0 0 0 0 0 0 0 0 0 0 0 0 0 0 0.25 0"/>
<feBlend mode="normal" in2="BackgroundImageFix" result="effect1_dropShadow"/>
<feBlend mode="normal" in="SourceGraphic" in2="effect1_dropShadow" result="shape"/>
</filter>
<linearGradient id="paint0_linear" x1="101.746" y1="5.27474" x2="210.423" y2="299.743" gradientUnits="userSpaceOnUse">
<stop stop-color="#E41359"/>
<stop offset="1" stop-color="#F23C79"/>
</linearGradient>
<linearGradient id="paint1_linear" x1="107.839" y1="50.9829" x2="191.707" y2="248.563" gradientUnits="userSpaceOnUse">
<stop stop-color="#24222F"/>
<stop offset="1" stop-color="#2B2937"/>
</linearGradient>
</defs>
</svg>
