<svg width="300" height="300" viewBox="0 0 300 300" fill="none" xmlns="http://www.w3.org/2000/svg">
<path d="M223.929 57.1383L165.133 32.1811C123.262 14.408 74.9114 33.943 57.1382 75.8139L32.181 134.61C14.4079 176.48 33.9429 224.831 75.8138 242.604L134.609 267.562C176.48 285.335 224.831 265.8 242.604 223.929L267.562 165.133C285.335 123.262 265.8 74.9115 223.929 57.1383Z" fill="url(#paint0_linear)"/>
<path fill-rule="evenodd" clip-rule="evenodd" d="M92.4143 57.5303L123.264 44.4354C150.152 33.0221 162.786 31.3265 176.174 32.5303C189.562 33.7341 201.759 38.6622 212.226 47.0962C222.692 55.5301 230.603 65.5262 242.016 92.4143L255.111 123.264C266.524 150.152 268.22 162.786 267.016 176.174C265.812 189.562 260.884 201.759 252.45 212.226C244.016 222.692 234.02 230.603 207.132 242.016L176.282 255.111C149.394 266.524 136.76 268.22 123.372 267.016C109.985 265.812 97.7871 260.884 87.3206 252.45C76.8541 244.016 68.9436 234.02 57.5303 207.132L44.4354 176.282C33.022 149.394 31.3265 136.76 32.5303 123.372C33.7341 109.985 38.6622 97.7871 47.0961 87.3206C55.53 76.8541 65.5261 68.9437 92.4143 57.5303Z" fill="url(#paint1_linear)"/>
<path fill-rule="evenodd" clip-rule="evenodd" d="M182.849 108.831C201.844 108.831 215.927 122.75 215.927 145.349V190.709H189.235V149.606C189.235 138.307 183.831 132.903 174.988 132.903C170.895 132.903 166.801 134.705 162.871 139.454C163.034 141.419 163.198 143.384 163.198 145.349V190.709H136.67V149.606C136.67 138.307 131.102 132.903 122.423 132.903C118.329 132.903 114.399 134.868 110.469 139.945V190.709H83.9404V111.288H110.469V116.036C115.873 111.451 121.44 108.831 130.283 108.831C140.272 108.831 148.788 112.598 154.683 119.475C163.034 112.106 171.058 108.831 182.849 108.831Z" fill="white"/>
<g filter="url(#filter0_d)">
<rect x="180" y="180" width="100" height="100" rx="20" fill="white"/>
</g>
<path d="M213.025 238.649H212.005V232.811C212.005 232.35 212.035 231.789 212.09 231.126H212.067C211.971 231.514 211.883 231.794 211.807 231.968L208.841 238.649H208.344L205.373 232.016C205.29 231.831 205.202 231.533 205.113 231.126H205.091C205.123 231.474 205.14 232.039 205.14 232.823V238.649H204.157V229.955H205.502L208.169 236.018C208.37 236.474 208.5 236.822 208.563 237.058H208.605C208.78 236.583 208.918 236.226 209.022 235.992L211.747 229.955H213.024V238.649H213.025V238.649ZM216.163 238.649H215.172V232.441H216.163V238.649ZM216.334 230.215C216.334 230.398 216.27 230.55 216.142 230.676C216.017 230.801 215.861 230.865 215.68 230.865C215.503 230.865 215.349 230.804 215.222 230.682C215.095 230.56 215.033 230.405 215.033 230.214C215.033 230.035 215.095 229.882 215.222 229.758C215.349 229.633 215.503 229.574 215.68 229.574C215.862 229.574 216.017 229.634 216.142 229.758C216.27 229.882 216.334 230.035 216.334 230.215V230.215ZM222.358 238.362C221.882 238.654 221.315 238.799 220.658 238.799C219.767 238.799 219.051 238.503 218.504 237.913C217.972 237.34 217.705 236.601 217.705 235.695C217.705 234.678 217.995 233.855 218.582 233.229C219.165 232.602 219.949 232.29 220.936 232.29C221.475 232.29 221.954 232.395 222.373 232.605V233.625C221.909 233.3 221.419 233.138 220.893 233.138C220.261 233.138 219.747 233.359 219.348 233.799C218.933 234.25 218.722 234.852 218.722 235.605C218.722 236.327 218.915 236.899 219.296 237.321C219.679 237.741 220.188 237.951 220.832 237.951C221.374 237.951 221.883 237.773 222.359 237.418V238.362H222.358V238.362ZM227.101 233.448C226.926 233.313 226.674 233.248 226.342 233.248C225.938 233.248 225.598 233.429 225.324 233.793C225.012 234.2 224.858 234.763 224.858 235.484V238.649H223.863V232.44H224.858V233.72H224.882C225.028 233.267 225.253 232.919 225.554 232.672C225.836 232.446 226.154 232.332 226.505 232.332C226.77 232.332 226.967 232.36 227.101 232.417V233.447L227.101 233.448V233.448ZM232.639 235.556C232.639 234.761 232.46 234.153 232.101 233.737C231.753 233.337 231.266 233.137 230.639 233.137C230.022 233.137 229.526 233.34 229.155 233.744C228.764 234.177 228.568 234.788 228.568 235.581C228.568 236.324 228.754 236.907 229.13 237.323C229.504 237.741 230.008 237.951 230.639 237.951C231.292 237.951 231.793 237.738 232.136 237.315C232.471 236.9 232.639 236.315 232.639 235.556V235.556ZM233.658 235.521C233.658 236.51 233.378 237.305 232.822 237.9C232.263 238.499 231.511 238.798 230.565 238.798C229.633 238.798 228.891 238.499 228.348 237.9C227.814 237.324 227.547 236.563 227.547 235.616C227.547 234.536 227.85 233.704 228.457 233.113C229.018 232.564 229.769 232.288 230.71 232.288C231.636 232.288 232.359 232.577 232.88 233.149C233.397 233.723 233.658 234.514 233.658 235.521V235.521ZM238.586 236.988C238.586 237.497 238.397 237.917 238.016 238.253C237.601 238.616 237.03 238.798 236.312 238.798C235.725 238.798 235.21 238.675 234.772 238.424V237.356C235.259 237.751 235.797 237.95 236.386 237.95C237.173 237.95 237.567 237.66 237.567 237.083C237.567 236.84 237.481 236.639 237.307 236.484C237.132 236.325 236.792 236.136 236.288 235.913C235.768 235.686 235.397 235.452 235.178 235.21C234.916 234.922 234.784 234.548 234.784 234.088C234.784 233.573 234.99 233.144 235.397 232.802C235.805 232.459 236.33 232.288 236.974 232.288C237.467 232.288 237.909 232.384 238.301 232.58V233.58C237.892 233.284 237.424 233.137 236.892 233.137C236.563 233.137 236.299 233.219 236.102 233.379C235.903 233.542 235.803 233.75 235.803 234.005C235.803 234.279 235.886 234.493 236.052 234.647C236.2 234.788 236.513 234.961 236.984 235.162C237.514 235.384 237.897 235.614 238.13 235.85C238.433 236.147 238.586 236.527 238.586 236.988V236.988ZM244.66 235.556C244.66 234.761 244.48 234.153 244.121 233.737C243.773 233.337 243.285 233.137 242.66 233.137C242.042 233.137 241.546 233.34 241.174 233.744C240.783 234.177 240.588 234.788 240.588 235.581C240.588 236.324 240.775 236.907 241.147 237.323C241.525 237.741 242.029 237.951 242.66 237.951C243.314 237.951 243.813 237.738 244.156 237.315C244.491 236.9 244.66 236.315 244.66 235.556V235.556ZM245.681 235.521C245.681 236.51 245.399 237.305 244.841 237.9C244.284 238.499 243.533 238.798 242.586 238.798C241.654 238.798 240.912 238.499 240.368 237.9C239.835 237.324 239.568 236.563 239.568 235.616C239.568 234.536 239.873 233.704 240.476 233.113C241.038 232.564 241.79 232.288 242.732 232.288C243.658 232.288 244.38 232.577 244.9 233.149C245.417 233.723 245.681 234.514 245.681 235.521V235.521ZM250.059 230.331C249.864 230.223 249.647 230.168 249.4 230.168C248.704 230.168 248.358 230.606 248.358 231.483V232.44H249.813V233.283H248.358V238.649H247.364V233.283H246.308V232.44H247.364V231.434C247.364 230.751 247.573 230.215 247.999 229.829C248.363 229.493 248.809 229.326 249.34 229.326C249.647 229.326 249.886 229.363 250.059 229.434V230.331V230.331ZM253.982 238.587C253.747 238.721 253.434 238.788 253.048 238.788C251.964 238.788 251.423 238.177 251.423 236.955V233.283H250.358V232.44H251.423V230.925C251.741 230.825 252.07 230.716 252.419 230.603V232.44H253.982V233.283H252.419V236.787C252.419 237.203 252.487 237.5 252.629 237.673C252.773 237.852 253.008 237.939 253.339 237.939C253.587 237.939 253.801 237.873 253.982 237.739V238.587V238.587ZM200.261 262.88C200.261 263.367 200.088 263.787 199.736 264.143C199.387 264.497 198.963 264.675 198.465 264.675C197.978 264.675 197.564 264.497 197.225 264.143C196.885 263.788 196.716 263.367 196.716 262.88C196.716 262.38 196.886 261.957 197.225 261.608C197.564 261.257 197.978 261.083 198.465 261.083C198.963 261.083 199.387 261.259 199.736 261.614C200.088 261.97 200.261 262.392 200.261 262.88V262.88ZM222.512 264.31H219.27L207.505 246.141C207.23 245.704 206.993 245.229 206.792 244.71H206.695C206.78 245.197 206.822 246.241 206.822 247.841V264.31H204.151V241.515H207.618L219.031 259.398C219.485 260.107 219.796 260.616 219.954 260.922H220.017C219.912 260.266 219.857 259.148 219.857 257.57V241.516H222.512V264.31H222.512V264.31ZM239.64 264.31H227.559V241.515H239.116V243.931H230.228V251.514H238.463V253.93H230.228V261.893H239.64V264.31ZM257.965 243.931H251.399V264.31H248.728V243.931H242.149V241.514H257.965V243.931V243.931Z" fill="black"/>
<path d="M221.605 202.143C224.183 210.025 225.159 224.086 232.696 224.086C233.27 224.086 233.85 224.03 234.432 223.919C227.58 222.321 226.768 208.414 222.587 201.211C222.259 201.51 221.934 201.82 221.605 202.143" fill="url(#paint2_linear)"/>
<path d="M222.588 201.211C226.769 208.414 227.581 222.321 234.432 223.919C234.97 223.82 235.51 223.67 236.05 223.482C229.9 220.468 228.201 206.963 223.453 200.461C223.165 200.701 222.876 200.951 222.588 201.211" fill="url(#paint3_linear)"/>
<path d="M228.612 196.928C228.04 196.928 227.458 196.984 226.875 197.095C225.35 197.383 223.801 198.039 222.239 199.033C222.665 199.455 223.072 199.936 223.453 200.462C225.042 199.144 226.62 198.17 228.192 197.584C228.782 197.366 229.37 197.202 229.96 197.093C229.534 196.984 229.085 196.928 228.612 196.928" fill="#14559A"/>
<path d="M240.85 220.704C241.48 220.204 242.11 219.651 242.742 219.047C240.123 211.202 239.185 196.94 231.595 196.94C231.053 196.94 230.505 196.99 229.959 197.092C236.872 198.811 237.758 213.852 240.85 220.704Z" fill="url(#paint4_linear)"/>
<path d="M229.96 197.092C229.534 196.984 229.085 196.928 228.611 196.928L231.596 196.939C231.053 196.939 230.506 196.989 229.96 197.092Z" fill="#3092C4"/>
<path d="M240.718 222.371C240.422 222.088 240.14 221.777 239.863 221.446C238.586 222.35 237.314 223.035 236.05 223.482C236.5 223.701 236.971 223.864 237.472 223.966C237.86 224.045 238.261 224.086 238.683 224.086C240.101 224.086 241.222 223.918 242.177 223.46C241.651 223.176 241.169 222.808 240.718 222.371" fill="#1969BC"/>
<path d="M228.191 197.585C234.384 200.824 234.922 215.491 239.863 221.446C240.194 221.213 240.522 220.966 240.85 220.705C237.756 213.852 236.872 198.81 229.96 197.092C229.37 197.202 228.781 197.365 228.191 197.585" fill="url(#paint5_linear)"/>
<path d="M223.453 200.461C228.2 206.963 229.9 220.469 236.05 223.482C237.315 223.036 238.586 222.35 239.863 221.446C234.922 215.491 234.383 200.824 228.191 197.585C226.619 198.17 225.041 199.144 223.453 200.461" fill="url(#paint6_linear)"/>
<path d="M218.567 201.953C217.823 203.636 217.063 205.847 216.144 208.735C217.971 206.16 219.793 203.941 221.605 202.143C221.355 201.376 221.088 200.668 220.799 200.038C220.058 200.605 219.312 201.244 218.567 201.953" fill="url(#paint7_linear)"/>
<path d="M221.459 199.553C221.24 199.71 221.02 199.87 220.8 200.038C221.089 200.669 221.356 201.376 221.605 202.143C221.935 201.821 222.261 201.509 222.588 201.211C222.236 200.609 221.863 200.052 221.459 199.553Z" fill="#2B74B1"/>
<path d="M222.238 199.033C221.978 199.197 221.72 199.371 221.458 199.553C221.863 200.052 222.236 200.608 222.588 201.212C222.877 200.951 223.165 200.7 223.453 200.461C223.071 199.936 222.665 199.454 222.238 199.033" fill="#125A9E"/>
<path d="M264.476 196.328C260.974 209.834 253.659 220.683 247.526 223.417H247.514L247.183 223.558L247.143 223.574L247.049 223.611L247.007 223.628L246.854 223.682L246.79 223.704L246.714 223.729L246.64 223.755L246.575 223.777L246.444 223.817L246.388 223.831L246.3 223.855L246.24 223.872L246.144 223.896L246.026 223.922C246.304 224.025 246.592 224.076 246.904 224.076C252.718 224.076 258.582 213.655 268.284 196.325H264.475L264.476 196.328V196.328Z" fill="url(#paint8_linear)"/>
<path d="M214.881 197.477L214.892 197.467L214.905 197.458H214.913L215.007 197.421L215.026 197.412L215.05 197.402L215.151 197.365H215.157L215.38 197.287L215.413 197.279L215.509 197.25L215.553 197.236L215.649 197.207L215.686 197.198L216.005 197.114L216.049 197.105L216.142 197.086L216.189 197.072L216.282 197.055H216.304L216.499 197.018H216.537L216.627 197.003L216.677 196.994L216.763 196.981L216.811 196.972L217.02 196.953C216.818 196.935 216.612 196.922 216.401 196.922C209.852 196.922 200.829 209.073 196.764 224.809H197.548C198.848 222.489 200.017 220.294 201.085 218.235C203.932 207.089 209.73 199.487 214.88 197.473" fill="url(#paint9_linear)"/>
<path d="M218.567 201.953C219.312 201.244 220.058 200.605 220.799 200.038C220.63 199.668 220.455 199.325 220.267 199.011C219.668 199.738 219.121 200.697 218.567 201.953V201.953ZM219.106 197.569C219.534 197.927 219.916 198.42 220.267 199.011C220.377 198.876 220.489 198.751 220.606 198.633C220.119 198.179 219.593 197.807 219.023 197.526L219.093 197.559L219.106 197.569Z" fill="#0D82CA"/>
<path d="M201.086 218.238C207.058 206.73 209.887 199.447 214.882 197.476C209.732 199.491 203.933 207.092 201.086 218.238" fill="url(#paint10_linear)"/>
<path d="M220.605 198.633C220.489 198.752 220.379 198.876 220.267 199.012C220.454 199.326 220.629 199.667 220.799 200.039C221.02 199.87 221.24 199.71 221.458 199.553C221.188 199.22 220.903 198.91 220.605 198.633" fill="#127BCA"/>
<path d="M203.798 224.76L203.69 224.772H203.669L203.577 224.782H203.562L203.343 224.797H203.32C209.363 224.627 212.126 221.601 213.498 217.212C214.539 213.885 215.395 211.082 216.145 208.73C213.614 212.293 211.07 216.541 208.514 221.299C207.281 223.592 205.406 224.55 203.798 224.755" fill="url(#paint11_linear)"/>
<path d="M203.798 224.757C205.406 224.552 207.281 223.595 208.513 221.301C211.07 216.544 213.615 212.296 216.144 208.732C217.064 205.844 217.823 203.634 218.568 201.951C213.527 206.749 208.467 214.728 203.798 224.755" fill="url(#paint12_linear)"/>
<path d="M201.087 218.238C200.018 220.297 198.85 222.491 197.548 224.812H199.827C200.128 222.508 200.556 220.311 201.086 218.239" fill="#05A1E6"/>
<path d="M216.812 196.979L216.763 196.988L216.678 197.001L216.628 197.01L216.538 197.025L216.499 197.035L216.305 197.069H216.283L216.188 197.087L216.141 197.1L216.049 197.118L216.005 197.129L215.686 197.212L215.649 197.223L215.552 197.252L215.508 197.263L215.412 197.291L215.377 197.3L215.155 197.378L215.054 197.413L215.012 197.431L214.919 197.466L214.887 197.481C209.894 199.452 207.064 206.735 201.093 218.242C200.562 220.315 200.133 222.512 199.833 224.815H200.153L202.344 224.806H203.348L203.567 224.791H203.581L203.673 224.782H203.696L203.804 224.769C208.472 214.742 213.533 206.764 218.574 201.965C219.128 200.709 219.675 199.75 220.272 199.024C219.922 198.433 219.54 197.938 219.112 197.58L219.1 197.57L219.028 197.536L218.958 197.5L218.889 197.467L218.809 197.433L218.745 197.405L218.613 197.35L218.557 197.328L218.458 197.289L218.405 197.271L218.268 197.225H218.257L218.098 197.179L218.062 197.168L217.929 197.131L217.897 197.122C217.789 197.093 217.678 197.07 217.565 197.049L217.531 197.04L217.387 197.017L217.358 197.008L217.188 196.986H217.158L217.027 196.971L216.818 196.99" fill="url(#paint13_linear)"/>
<path d="M250.796 203.805C249.647 207.486 248.717 210.522 247.907 213.02C251.06 208.682 254.165 203.225 257.123 196.926C253.672 198.01 251.832 200.489 250.796 203.805" fill="url(#paint14_linear)"/>
<path d="M248.007 223.188C247.846 223.27 247.685 223.347 247.526 223.418C253.659 220.683 260.974 209.834 264.476 196.328H263.766C255.72 210.701 253.132 220.323 248.007 223.188" fill="url(#paint15_linear)"/>
<path d="M244.002 221.98C245.337 220.352 246.423 217.583 247.908 213.02C246.196 215.371 244.473 217.392 242.749 219.04L242.74 219.054C243.116 220.181 243.529 221.177 243.999 221.979" fill="#079AE1"/>
<path d="M244.003 221.98C243.549 222.534 243.067 222.956 242.533 223.269C242.415 223.337 242.297 223.402 242.176 223.46C242.741 223.765 243.358 223.969 244.047 224.05L244.353 224.077H244.371L244.518 224.086H245.017L245.074 224.077L245.184 224.068H245.237L245.357 224.055H245.366L245.403 224.046L245.531 224.026H245.568L245.712 224.002H245.735L246.021 223.941C245.23 223.652 244.567 222.968 243.997 221.996" fill="#1969BC"/>
<path d="M232.696 224.086C233.27 224.086 233.849 224.029 234.431 223.918C234.97 223.82 235.509 223.67 236.05 223.482C236.499 223.701 236.971 223.864 237.471 223.966C237.858 224.045 238.26 224.086 238.683 224.086H232.696ZM238.683 224.086C240.1 224.086 241.222 223.918 242.176 223.46C242.741 223.765 243.357 223.969 244.047 224.05L244.353 224.076H244.371L244.518 224.086H244.695H238.683V224.086Z" fill="#1E5CB3"/>
<path d="M244.694 224.086H245.022L245.078 224.076L245.189 224.067H245.244L245.363 224.054H245.373L245.409 224.045L245.537 224.026L245.576 224.017L245.72 223.994H245.743L246.029 223.933C246.306 224.035 246.595 224.087 246.907 224.087L244.696 224.096L244.694 224.086V224.086Z" fill="#1D60B5"/>
<path d="M242.744 219.055V219.046C242.112 219.65 241.482 220.203 240.852 220.704C240.523 220.964 240.196 221.212 239.864 221.445C240.141 221.776 240.423 222.087 240.72 222.37C241.171 222.807 241.653 223.175 242.178 223.459C242.298 223.401 242.417 223.336 242.534 223.268C243.07 222.955 243.55 222.534 244.004 221.979C243.534 221.177 243.121 220.181 242.746 219.054" fill="#175FAB"/>
<path d="M261.518 196.328H257.946L257.38 196.356L257.117 196.919C254.16 203.218 251.055 208.675 247.902 213.014C246.419 217.576 245.331 220.345 243.997 221.973C244.567 222.947 245.231 223.631 246.02 223.921L246.082 223.908H246.095L246.138 223.898L246.237 223.873L246.296 223.856L246.384 223.833L246.439 223.817L246.571 223.778L246.636 223.756L246.71 223.729L246.786 223.705L246.847 223.681L247.001 223.628L247.044 223.612L247.138 223.575L247.179 223.56L247.51 223.419H247.521C247.68 223.349 247.841 223.271 248.001 223.189C253.128 220.325 255.715 210.702 263.761 196.329H261.514L261.518 196.328V196.328Z" fill="url(#paint16_linear)"/>
<path d="M217.021 196.96L217.058 196.969L217.152 196.979H217.183L217.353 197.001L217.382 197.01L217.526 197.034L217.562 197.043L217.893 197.116L217.923 197.126L218.056 197.163L218.093 197.174L218.251 197.219L218.262 197.229L218.401 197.276L218.454 197.293L218.553 197.334L218.609 197.354L218.74 197.409L218.804 197.436L218.884 197.471L218.954 197.504L219.024 197.54C219.594 197.821 220.12 198.194 220.607 198.647C220.786 198.459 220.973 198.29 221.168 198.138C220.105 197.383 218.898 196.953 217.508 196.953C217.347 196.953 217.187 196.962 217.023 196.974" fill="#7DCBEC"/>
<path d="M220.605 198.633C220.903 198.91 221.188 199.22 221.459 199.553C221.719 199.371 221.978 199.197 222.238 199.033C221.898 198.692 221.539 198.386 221.166 198.123C220.971 198.274 220.784 198.445 220.605 198.633" fill="#5EC5ED"/>
<path d="M216.867 196.999L217.352 196.978C218.743 196.978 219.949 197.407 221.011 198.161C222.135 197.277 223.49 196.966 225.377 196.966H216.249L216.867 196.999" fill="url(#paint17_linear)"/>
<path d="M225.377 196.966C223.493 196.966 222.135 197.277 221.011 198.161C221.383 198.424 221.742 198.729 222.082 199.069C223.643 198.075 225.193 197.419 226.719 197.129C227.302 197.019 227.882 196.963 228.456 196.963H225.377V196.966Z" fill="url(#paint18_linear)"/>
<path d="M247.907 213.023C248.718 210.522 249.646 207.487 250.798 203.806C251.835 200.489 253.672 198.009 257.121 196.926L257.387 196.363C251.764 196.7 249.136 199.56 247.814 203.796C245.501 211.192 244.099 215.986 242.75 219.041C244.473 217.393 246.196 215.371 247.907 213.023Z" fill="url(#paint19_linear)"/>
<defs>
<filter id="filter0_d" x="176" y="176" width="108" height="108" filterUnits="userSpaceOnUse" color-interpolation-filters="sRGB">
<feFlood flood-opacity="0" result="BackgroundImageFix"/>
<feColorMatrix in="SourceAlpha" type="matrix" values="0 0 0 0 0 0 0 0 0 0 0 0 0 0 0 0 0 0 127 0"/>
<feOffset/>
<feGaussianBlur stdDeviation="2"/>
<feColorMatrix type="matrix" values="0 0 0 0 0 0 0 0 0 0 0 0 0 0 0 0 0 0 0.25 0"/>
<feBlend mode="normal" in2="BackgroundImageFix" result="effect1_dropShadow"/>
<feBlend mode="normal" in="SourceGraphic" in2="effect1_dropShadow" result="shape"/>
</filter>
<linearGradient id="paint0_linear" x1="101.746" y1="5.27474" x2="210.423" y2="299.743" gradientUnits="userSpaceOnUse">
<stop stop-color="#E41359"/>
<stop offset="1" stop-color="#F23C79"/>
</linearGradient>
<linearGradient id="paint1_linear" x1="107.839" y1="50.9829" x2="191.707" y2="248.563" gradientUnits="userSpaceOnUse">
<stop stop-color="#24222F"/>
<stop offset="1" stop-color="#2B2937"/>
</linearGradient>
<linearGradient id="paint2_linear" x1="228.158" y1="196.839" x2="228.158" y2="230.88" gradientUnits="userSpaceOnUse">
<stop stop-color="#0994DC"/>
<stop offset="0.35" stop-color="#66CEF5"/>
<stop offset="0.846" stop-color="#127BCA"/>
<stop offset="1" stop-color="#127BCA"/>
</linearGradient>
<linearGradient id="paint3_linear" x1="229.359" y1="195.83" x2="229.359" y2="230.829" gradientUnits="userSpaceOnUse">
<stop stop-color="#0E76BC"/>
<stop offset="0.36" stop-color="#36AEE8"/>
<stop offset="0.846" stop-color="#00ADEF"/>
<stop offset="1" stop-color="#00ADEF"/>
</linearGradient>
<linearGradient id="paint4_linear" x1="236.339" y1="223.239" x2="236.339" y2="195.463" gradientUnits="userSpaceOnUse">
<stop stop-color="#1C63B7"/>
<stop offset="0.5" stop-color="#33BDF2"/>
<stop offset="1" stop-color="#33BDF2" stop-opacity="0.42"/>
</linearGradient>
<linearGradient id="paint5_linear" x1="234.469" y1="192.29" x2="234.469" y2="228.627" gradientUnits="userSpaceOnUse">
<stop stop-color="#166AB8"/>
<stop offset="0.4" stop-color="#36AEE8"/>
<stop offset="0.846" stop-color="#0798DD"/>
<stop offset="1" stop-color="#0798DD"/>
</linearGradient>
<linearGradient id="paint6_linear" x1="231.826" y1="192.542" x2="231.826" y2="231.182" gradientUnits="userSpaceOnUse">
<stop stop-color="#124379"/>
<stop offset="0.39" stop-color="#1487CB"/>
<stop offset="0.78" stop-color="#165197"/>
<stop offset="1" stop-color="#165197"/>
</linearGradient>
<linearGradient id="paint7_linear" x1="215.851" y1="203.92" x2="221.312" y2="203.92" gradientUnits="userSpaceOnUse">
<stop stop-color="#33BDF2" stop-opacity="0.698"/>
<stop offset="1" stop-color="#1DACD8"/>
</linearGradient>
<linearGradient id="paint8_linear" x1="257.18" y1="222.531" x2="257.18" y2="195.404" gradientUnits="userSpaceOnUse">
<stop stop-color="#136AB4"/>
<stop offset="0.6" stop-color="#59CAF5" stop-opacity="0.549"/>
<stop offset="1" stop-color="#59CAF5" stop-opacity="0.235"/>
</linearGradient>
<linearGradient id="paint9_linear" x1="196.476" y1="210.4" x2="216.726" y2="210.4" gradientUnits="userSpaceOnUse">
<stop stop-color="#05A1E6" stop-opacity="0.247"/>
<stop offset="1" stop-color="#05A1E6"/>
</linearGradient>
<linearGradient id="paint10_linear" x1="208.093" y1="223.258" x2="208.093" y2="195.553" gradientUnits="userSpaceOnUse">
<stop stop-color="#318ED5"/>
<stop offset="1" stop-color="#38A7E4"/>
</linearGradient>
<linearGradient id="paint11_linear" x1="209.644" y1="223.346" x2="209.644" y2="196.345" gradientUnits="userSpaceOnUse">
<stop stop-color="#05A1E6"/>
<stop offset="1" stop-color="#05A1E6" stop-opacity="0.549"/>
</linearGradient>
<linearGradient id="paint12_linear" x1="211.27" y1="224.808" x2="211.27" y2="201.992" gradientUnits="userSpaceOnUse">
<stop stop-color="#1959A6"/>
<stop offset="0.5" stop-color="#05A1E6"/>
<stop offset="0.918" stop-color="#7EC5EA"/>
<stop offset="1" stop-color="#7EC5EA"/>
</linearGradient>
<linearGradient id="paint13_linear" x1="212.013" y1="223.267" x2="207.663" y2="198.592" gradientUnits="userSpaceOnUse">
<stop stop-color="#165096"/>
<stop offset="1" stop-color="#0D82CA"/>
</linearGradient>
<linearGradient id="paint14_linear" x1="252.397" y1="209.277" x2="252.397" y2="196.348" gradientUnits="userSpaceOnUse">
<stop stop-color="#05A1E6"/>
<stop offset="0.874" stop-color="#0495D6"/>
<stop offset="1" stop-color="#0495D6"/>
</linearGradient>
<linearGradient id="paint15_linear" x1="258.66" y1="195.231" x2="253.417" y2="224.967" gradientUnits="userSpaceOnUse">
<stop stop-color="#38A7E4" stop-opacity="0.329"/>
<stop offset="0.962" stop-color="#0E88D3"/>
<stop offset="1" stop-color="#0E88D3"/>
</linearGradient>
<linearGradient id="paint16_linear" x1="253.733" y1="196.282" x2="253.733" y2="224.414" gradientUnits="userSpaceOnUse">
<stop stop-color="#168CD4"/>
<stop offset="0.5" stop-color="#1C87CC"/>
<stop offset="1" stop-color="#154B8D"/>
</linearGradient>
<linearGradient id="paint17_linear" x1="215.588" y1="193.473" x2="248.384" y2="207.075" gradientUnits="userSpaceOnUse">
<stop stop-color="#97D6EE"/>
<stop offset="0.703" stop-color="#55C1EA"/>
<stop offset="1" stop-color="#55C1EA"/>
</linearGradient>
<linearGradient id="paint18_linear" x1="224.558" y1="201.287" x2="250.461" y2="189.544" gradientUnits="userSpaceOnUse">
<stop stop-color="#7ACCEC"/>
<stop offset="1" stop-color="#3FB7ED"/>
</linearGradient>
<linearGradient id="paint19_linear" x1="249.956" y1="197.774" x2="249.956" y2="225.361" gradientUnits="userSpaceOnUse">
<stop stop-color="#1DA7E7"/>
<stop offset="1" stop-color="#37ABE7" stop-opacity="0"/>
</linearGradient>
</defs>
</svg>
